# xmcd CD database file
#
# Track frame offsets:
#	150
#	19203
#	41846
#	65316
#	90883
#	114340
#	131959
#	151990
#	168621
#	185809
#	210659
#
# Disc length: 3076 seconds
#
# Revision: 0
# Processed by: cddbd v1.5.1PL0 Copyright (c) Steve Scherf et al.
# Submitted via: CDex 1.51
#
DISCID=960c020b
DTITLE=及川光博 - 流星
DYEAR=1900
DGENRE=JPop
TTITLE0=01 月下美人
TTITLE1=02 強烈ロマンス
TTITLE2=03 まるごとフルーツ
TTITLE3=04 ベストフレンド
TTITLE4=05 花びらのように〜モノローグ〜
TTITLE5=06 恍惚ニ死ス。
TTITLE6=07 シャンデリア・ラブ
TTITLE7=08 セルロイドの夜
TTITLE8=09 ヘヴンな気分
TTITLE9=10 流星
TTITLE10=11 NEON BOY
EXTD=
EXTT0=
EXTT1=
EXTT2=
EXTT3=
EXTT4=
EXTT5=
EXTT6=
EXTT7=
EXTT8=
EXTT9=
EXTT10=
PLAYORDER=
